# xmcd
#
# Track frame offsets:
#	150
#	14078
#	28318
#	45814
#	61770
#	75810
#	89860
#	104151
#	120646
#	137000
#	152819
#	171900
#
# Disc length: 2477 seconds
#
# Revision: 2
# Processed by: cddbd v1.5.2PL0 Copyright (c) Steve Scherf et al.
# Submitted via: audiograbber 1.83.01
#
DISCID=9b09ab0c
DTITLE=Joe Nichols - Old Things New
DYEAR=2009
DGENRE=Country
TTITLE0=Gimmie That Girl
TTITLE1=It's Me I'm Worried About
TTITLE2=Old Things New
TTITLE3=Man, Woman
TTITLE4=Believers
TTITLE5=Cheaper Than a Shrink
TTITLE6=The Shape I'm In
TTITLE7=This Bed's Too Big
TTITLE8=We All Go Home
TTITLE9=An Old Friend Of Mine
TTITLE10=Let's Get Drunk and Fight
TTITLE11=Tequila Makes Her Clothes Fall Off (Fat Shan Remix)
EXTD=
EXTT0=
EXTT1=
EXTT2=
EXTT3=
EXTT4=
EXTT5=
EXTT6=
EXTT7=
EXTT8=
EXTT9=
EXTT10=
EXTT11=
PLAYORDER=
